<svg data-bbox="20 25 160 150" viewBox="0 0 200 200" height="200" width="200" xmlns="http://www.w3.org/2000/svg" data-type="color">
    <g>
        <path d="M179.9 37.2L159 49.3l-.3-.2v67.4l-37.9 21.9V70.9L99.6 83.1V175l.3-.2v.2l79.6-46v-.1l-20.8-12 21.2 12.2V37.2z" fill="#383e45" data-color="1"/>
        <path d="M62.1 37.2l-21 12.1-.3-.2.3.2v67.4l37.3 21.6v-23.9L62.1 105V37.2z" fill="#383e45" data-color="1"/>
        <path d="M180 37.2L158.9 25l-21 12.1L159 49.3l21-12.1z" fill="#ff5200" data-color="2"/>
        <path d="M62.2 37.2L41 25 20 37.1l21.1 12.2 21.1-12.1z" fill="#ff5200" data-color="2"/>
        <path d="M78.5 138.4l-37.3-21.6V49.4L20 37.2v91.9l21.2 12.2L99.6 175v-.1l.1.1V83.1L78.5 70.9v67.5z" fill="#ff5200" data-color="2"/>
        <path d="M78.5 70.8L99.7 83l21-12.1-21.1-12.2-21.1 12.1z" fill="#ff5200" data-color="2"/>
        <path d="M158.7 49.2l-20.9-12.1v67.5l-17 9.8v24l37.9-21.9V49.2z" fill="#ff5200" data-color="2"/>
        <path d="M159 141.3v-.4l-.4.2c.1 0 .4.2.4.2z" fill="#ff5200" data-color="2"/>
    </g>
</svg>
