<svg data-bbox="35.765 32.6 119.928 139.612" data-type="color" viewBox="0 0 200 200" height="200" width="200" xmlns="http://www.w3.org/2000/svg">
    <g>
        <path data-color="1" d="M35.765 69.678v68.661l60.422 33.873v-22.887l-40.282-22.887-.458-44.859-19.682-11.901z" fill="#2E3D54"/>
        <path data-color="2" d="M115.869 45.875L96.187 32.6 35.765 69.678l19.682 11.901 60.422-35.704z" fill="#FEBC1B"/>
        <path data-color="3" d="M96.187 149.325l59.506-35.246v24.26l-59.506 33.873v-22.887z" fill="#FF4C5F"/>
        <path data-color="1" d="M115.869 57.09l30.669 18.08-40.281 56.761-30.44-17.852 40.052-56.989z" fill="#2E3D54"/>
        <path data-color="3" d="M146.538 108.128l-40.281 23.803 40.281-56.761v32.958z" fill="#FF4C5F"/>
        <path data-color="2" d="M55.905 126.438l19.912-12.359 30.44 17.852 40.281-23.803 9.155 5.951-59.506 35.246-40.282-22.887z" fill="#FEBC1B"/>
        <path data-color="3" d="M115.869 45.875V57.09l-40.052 56.989-19.912 12.359-.458-44.859 60.422-35.704z" fill="#FF4C5F"/>
    </g>
</svg>
