<svg data-bbox="20.041 20.031 160.019 159.929" viewBox="0 0 200 200" height="200" width="200" xmlns="http://www.w3.org/2000/svg" data-type="color">
    <g>
        <path d="M124.8 24C82.8 10.3 37.6 33.2 24 75.2c-13.7 42 9.3 87.1 51.3 100.8s87.1-9.3 100.8-51.3-9.3-87.1-51.3-100.7zm-51 84.2c0-11.4 9.3-20.7 20.7-20.7 11.4 0 20.7 9.3 20.7 20.7 0 11.4-9.3 20.7-20.7 20.7-11.5 0-20.7-9.3-20.7-20.7zm44.6 3.2c0-15.4-12.4-27.8-27.8-27.9S62.7 96 62.7 111.4c0 3.1.5 6.2 1.5 9.1-4.1-7.5-5.6-16.5-3.6-25.5 4.3-19.8 23.9-32.3 43.7-28 19.8 4.3 32.3 23.9 28 43.7-4.1 18.7-21.8 30.9-40.4 28.5 14.7-.7 26.5-12.8 26.5-27.8zm50.4-.9c-10.2 31.2-43.7 48.3-74.9 38.1-7-2.3-13.5-5.8-19.1-10.4 5.7 4.3 12.2 7.2 19.1 8.8 26.6 5.8 53-11 58.8-37.7s-11-53-37.7-58.8c-26.6-5.8-53 11-58.8 37.7-2.5 11.4-.8 22.7 4 32.5-7.6-13.9-9.6-30.7-4.4-46.8C66 42.6 99.5 25.5 130.7 35.7s48.3 43.6 38.1 74.8z" fill="#b08f62" data-color="1"/>
    </g>
</svg>
